<mxfile host="app.diagrams.net" agent="Mozilla/5.0 (Windows NT 10.0; Win64; x64) AppleWebKit/537.36 (KHTML, like Gecko) Chrome/131.0.0.0 Safari/537.36" version="25.0.3">
  <diagram name="Page-1" id="74e2e168-ea6b-b213-b513-2b3c1d86103e">
    <mxGraphModel dx="1122" dy="2609" grid="1" gridSize="10" guides="1" tooltips="1" connect="1" arrows="1" fold="1" page="1" pageScale="1" pageWidth="1100" pageHeight="850" background="none" math="0" shadow="0">
      <root>
        <mxCell id="0" />
        <mxCell id="1" parent="0" />
        <mxCell id="wPcUezbcUqwBAAdGlCMR-15" value="&lt;span style=&quot;color: rgb(50, 50, 50); font-family: &amp;quot;Microsoft YaHei&amp;quot;, 微软雅黑, Arial; font-size: 13px; background-color: rgba(255, 255, 255, 0.01);&quot;&gt;预加热&lt;/span&gt;" style="ellipse;whiteSpace=wrap;html=1;" vertex="1" parent="1">
          <mxGeometry x="710" y="40" width="120" height="80" as="geometry" />
        </mxCell>
        <mxCell id="wPcUezbcUqwBAAdGlCMR-16" value="&lt;span style=&quot;color: rgb(50, 50, 50); font-family: &amp;quot;Microsoft YaHei&amp;quot;, 微软雅黑, Arial; font-size: 13px; background-color: rgba(255, 255, 255, 0.01);&quot;&gt;关闭&lt;/span&gt;" style="ellipse;whiteSpace=wrap;html=1;" vertex="1" parent="1">
          <mxGeometry x="550" y="220" width="120" height="80" as="geometry" />
        </mxCell>
        <mxCell id="wPcUezbcUqwBAAdGlCMR-17" value="&lt;span style=&quot;color: rgb(50, 50, 50); font-family: &amp;quot;Microsoft YaHei&amp;quot;, 微软雅黑, Arial; font-size: 13px; background-color: rgba(255, 255, 255, 0.01);&quot;&gt;加热&lt;/span&gt;" style="ellipse;whiteSpace=wrap;html=1;" vertex="1" parent="1">
          <mxGeometry x="860" y="220" width="120" height="80" as="geometry" />
        </mxCell>
        <mxCell id="wPcUezbcUqwBAAdGlCMR-20" value="" style="endArrow=classic;html=1;rounded=0;" edge="1" parent="1" target="wPcUezbcUqwBAAdGlCMR-15">
          <mxGeometry width="50" height="50" relative="1" as="geometry">
            <mxPoint x="620" y="220" as="sourcePoint" />
            <mxPoint x="670" y="170" as="targetPoint" />
          </mxGeometry>
        </mxCell>
        <mxCell id="wPcUezbcUqwBAAdGlCMR-24" value="" style="endArrow=classic;html=1;rounded=0;exitX=0.931;exitY=0.806;exitDx=0;exitDy=0;exitPerimeter=0;entryX=0.5;entryY=0;entryDx=0;entryDy=0;" edge="1" parent="1" source="wPcUezbcUqwBAAdGlCMR-15" target="wPcUezbcUqwBAAdGlCMR-17">
          <mxGeometry width="50" height="50" relative="1" as="geometry">
            <mxPoint x="730" y="240" as="sourcePoint" />
            <mxPoint x="780" y="190" as="targetPoint" />
          </mxGeometry>
        </mxCell>
        <mxCell id="wPcUezbcUqwBAAdGlCMR-25" value="" style="endArrow=classic;html=1;rounded=0;exitX=0.038;exitY=0.706;exitDx=0;exitDy=0;exitPerimeter=0;entryX=0.944;entryY=0.692;entryDx=0;entryDy=0;entryPerimeter=0;" edge="1" parent="1" source="wPcUezbcUqwBAAdGlCMR-17" target="wPcUezbcUqwBAAdGlCMR-16">
          <mxGeometry width="50" height="50" relative="1" as="geometry">
            <mxPoint x="730" y="240" as="sourcePoint" />
            <mxPoint x="780" y="190" as="targetPoint" />
          </mxGeometry>
        </mxCell>
        <mxCell id="wPcUezbcUqwBAAdGlCMR-26" value="" style="endArrow=classic;html=1;rounded=0;exitX=0.051;exitY=0.764;exitDx=0;exitDy=0;exitPerimeter=0;entryX=0.336;entryY=0.047;entryDx=0;entryDy=0;entryPerimeter=0;" edge="1" parent="1" source="wPcUezbcUqwBAAdGlCMR-15" target="wPcUezbcUqwBAAdGlCMR-16">
          <mxGeometry width="50" height="50" relative="1" as="geometry">
            <mxPoint x="730" y="240" as="sourcePoint" />
            <mxPoint x="780" y="190" as="targetPoint" />
          </mxGeometry>
        </mxCell>
        <mxCell id="wPcUezbcUqwBAAdGlCMR-28" value="串口" style="text;html=1;align=center;verticalAlign=middle;whiteSpace=wrap;rounded=0;" vertex="1" parent="1">
          <mxGeometry x="660" y="160" width="60" height="30" as="geometry" />
        </mxCell>
        <mxCell id="wPcUezbcUqwBAAdGlCMR-32" value="串口或按键" style="text;html=1;align=center;verticalAlign=middle;whiteSpace=wrap;rounded=0;" vertex="1" parent="1">
          <mxGeometry x="580" y="150" width="80" height="10" as="geometry" />
        </mxCell>
        <mxCell id="wPcUezbcUqwBAAdGlCMR-34" value="串口或按键" style="text;html=1;align=center;verticalAlign=middle;whiteSpace=wrap;rounded=0;" vertex="1" parent="1">
          <mxGeometry x="730" y="280" width="80" height="10" as="geometry" />
        </mxCell>
        <mxCell id="wPcUezbcUqwBAAdGlCMR-36" value="按键" style="text;html=1;align=center;verticalAlign=middle;whiteSpace=wrap;rounded=0;" vertex="1" parent="1">
          <mxGeometry x="840" y="140" width="80" height="10" as="geometry" />
        </mxCell>
        <mxCell id="wPcUezbcUqwBAAdGlCMR-37" value="&lt;span style=&quot;color: rgb(50, 50, 50); font-family: &amp;quot;Microsoft YaHei&amp;quot;, 微软雅黑, Arial; font-size: 13px; background-color: rgba(255, 255, 255, 0.01);&quot;&gt;预自动&lt;/span&gt;" style="ellipse;whiteSpace=wrap;html=1;" vertex="1" parent="1">
          <mxGeometry x="790" y="370" width="120" height="80" as="geometry" />
        </mxCell>
        <mxCell id="wPcUezbcUqwBAAdGlCMR-38" value="&lt;span style=&quot;color: rgb(50, 50, 50); font-family: &amp;quot;Microsoft YaHei&amp;quot;, 微软雅黑, Arial; font-size: 13px; background-color: rgba(255, 255, 255, 0.01);&quot;&gt;关闭&lt;/span&gt;" style="ellipse;whiteSpace=wrap;html=1;" vertex="1" parent="1">
          <mxGeometry x="630" y="550" width="120" height="80" as="geometry" />
        </mxCell>
        <mxCell id="wPcUezbcUqwBAAdGlCMR-39" value="&lt;span style=&quot;color: rgb(50, 50, 50); font-family: &amp;quot;Microsoft YaHei&amp;quot;, 微软雅黑, Arial; font-size: 13px; background-color: rgba(255, 255, 255, 0.01);&quot;&gt;自动&lt;/span&gt;" style="ellipse;whiteSpace=wrap;html=1;" vertex="1" parent="1">
          <mxGeometry x="940" y="550" width="120" height="80" as="geometry" />
        </mxCell>
        <mxCell id="wPcUezbcUqwBAAdGlCMR-40" value="" style="endArrow=classic;html=1;rounded=0;" edge="1" parent="1" target="wPcUezbcUqwBAAdGlCMR-37">
          <mxGeometry width="50" height="50" relative="1" as="geometry">
            <mxPoint x="700" y="550" as="sourcePoint" />
            <mxPoint x="750" y="500" as="targetPoint" />
          </mxGeometry>
        </mxCell>
        <mxCell id="wPcUezbcUqwBAAdGlCMR-41" value="" style="endArrow=classic;html=1;rounded=0;exitX=0.931;exitY=0.806;exitDx=0;exitDy=0;exitPerimeter=0;entryX=0.5;entryY=0;entryDx=0;entryDy=0;" edge="1" parent="1" source="wPcUezbcUqwBAAdGlCMR-37" target="wPcUezbcUqwBAAdGlCMR-39">
          <mxGeometry width="50" height="50" relative="1" as="geometry">
            <mxPoint x="810" y="570" as="sourcePoint" />
            <mxPoint x="860" y="520" as="targetPoint" />
          </mxGeometry>
        </mxCell>
        <mxCell id="wPcUezbcUqwBAAdGlCMR-42" value="" style="endArrow=classic;html=1;rounded=0;exitX=0.038;exitY=0.706;exitDx=0;exitDy=0;exitPerimeter=0;entryX=0.944;entryY=0.692;entryDx=0;entryDy=0;entryPerimeter=0;" edge="1" parent="1" source="wPcUezbcUqwBAAdGlCMR-39" target="wPcUezbcUqwBAAdGlCMR-38">
          <mxGeometry width="50" height="50" relative="1" as="geometry">
            <mxPoint x="810" y="570" as="sourcePoint" />
            <mxPoint x="860" y="520" as="targetPoint" />
          </mxGeometry>
        </mxCell>
        <mxCell id="wPcUezbcUqwBAAdGlCMR-43" value="" style="endArrow=classic;html=1;rounded=0;exitX=0.051;exitY=0.764;exitDx=0;exitDy=0;exitPerimeter=0;entryX=0.336;entryY=0.047;entryDx=0;entryDy=0;entryPerimeter=0;" edge="1" parent="1" source="wPcUezbcUqwBAAdGlCMR-37" target="wPcUezbcUqwBAAdGlCMR-38">
          <mxGeometry width="50" height="50" relative="1" as="geometry">
            <mxPoint x="810" y="570" as="sourcePoint" />
            <mxPoint x="860" y="520" as="targetPoint" />
          </mxGeometry>
        </mxCell>
        <mxCell id="wPcUezbcUqwBAAdGlCMR-44" value="串口" style="text;html=1;align=center;verticalAlign=middle;whiteSpace=wrap;rounded=0;" vertex="1" parent="1">
          <mxGeometry x="740" y="490" width="60" height="30" as="geometry" />
        </mxCell>
        <mxCell id="wPcUezbcUqwBAAdGlCMR-45" value="串口或按键" style="text;html=1;align=center;verticalAlign=middle;whiteSpace=wrap;rounded=0;" vertex="1" parent="1">
          <mxGeometry x="660" y="480" width="80" height="10" as="geometry" />
        </mxCell>
        <mxCell id="wPcUezbcUqwBAAdGlCMR-46" value="串口或按键" style="text;html=1;align=center;verticalAlign=middle;whiteSpace=wrap;rounded=0;" vertex="1" parent="1">
          <mxGeometry x="810" y="610" width="80" height="10" as="geometry" />
        </mxCell>
        <mxCell id="wPcUezbcUqwBAAdGlCMR-47" value="按键" style="text;html=1;align=center;verticalAlign=middle;whiteSpace=wrap;rounded=0;" vertex="1" parent="1">
          <mxGeometry x="920" y="470" width="80" height="10" as="geometry" />
        </mxCell>
        <mxCell id="wPcUezbcUqwBAAdGlCMR-48" value="&lt;span style=&quot;color: rgb(50, 50, 50); font-family: &amp;quot;Microsoft YaHei&amp;quot;, 微软雅黑, Arial; font-size: 13px; background-color: rgba(255, 255, 255, 0.01);&quot;&gt;预挤压&lt;/span&gt;" style="ellipse;whiteSpace=wrap;html=1;" vertex="1" parent="1">
          <mxGeometry x="235" y="60" width="120" height="80" as="geometry" />
        </mxCell>
        <mxCell id="wPcUezbcUqwBAAdGlCMR-49" value="&lt;span style=&quot;color: rgb(50, 50, 50); font-family: &amp;quot;Microsoft YaHei&amp;quot;, 微软雅黑, Arial; font-size: 13px; background-color: rgba(255, 255, 255, 0.01);&quot;&gt;关闭&lt;/span&gt;" style="ellipse;whiteSpace=wrap;html=1;" vertex="1" parent="1">
          <mxGeometry x="75" y="240" width="120" height="80" as="geometry" />
        </mxCell>
        <mxCell id="wPcUezbcUqwBAAdGlCMR-50" value="&lt;span style=&quot;color: rgb(50, 50, 50); font-family: &amp;quot;Microsoft YaHei&amp;quot;, 微软雅黑, Arial; font-size: 13px; background-color: rgba(255, 255, 255, 0.01);&quot;&gt;挤压&lt;/span&gt;" style="ellipse;whiteSpace=wrap;html=1;" vertex="1" parent="1">
          <mxGeometry x="385" y="240" width="120" height="80" as="geometry" />
        </mxCell>
        <mxCell id="wPcUezbcUqwBAAdGlCMR-51" value="" style="endArrow=classic;html=1;rounded=0;" edge="1" parent="1" target="wPcUezbcUqwBAAdGlCMR-48">
          <mxGeometry width="50" height="50" relative="1" as="geometry">
            <mxPoint x="145" y="240" as="sourcePoint" />
            <mxPoint x="195" y="190" as="targetPoint" />
          </mxGeometry>
        </mxCell>
        <mxCell id="wPcUezbcUqwBAAdGlCMR-52" value="" style="endArrow=classic;html=1;rounded=0;exitX=0.931;exitY=0.806;exitDx=0;exitDy=0;exitPerimeter=0;entryX=0.5;entryY=0;entryDx=0;entryDy=0;" edge="1" parent="1" source="wPcUezbcUqwBAAdGlCMR-48" target="wPcUezbcUqwBAAdGlCMR-50">
          <mxGeometry width="50" height="50" relative="1" as="geometry">
            <mxPoint x="255" y="260" as="sourcePoint" />
            <mxPoint x="305" y="210" as="targetPoint" />
          </mxGeometry>
        </mxCell>
        <mxCell id="wPcUezbcUqwBAAdGlCMR-53" value="" style="endArrow=classic;html=1;rounded=0;exitX=0.038;exitY=0.706;exitDx=0;exitDy=0;exitPerimeter=0;entryX=0.944;entryY=0.692;entryDx=0;entryDy=0;entryPerimeter=0;" edge="1" parent="1" source="wPcUezbcUqwBAAdGlCMR-50" target="wPcUezbcUqwBAAdGlCMR-49">
          <mxGeometry width="50" height="50" relative="1" as="geometry">
            <mxPoint x="255" y="260" as="sourcePoint" />
            <mxPoint x="305" y="210" as="targetPoint" />
          </mxGeometry>
        </mxCell>
        <mxCell id="wPcUezbcUqwBAAdGlCMR-54" value="" style="endArrow=classic;html=1;rounded=0;exitX=0.051;exitY=0.764;exitDx=0;exitDy=0;exitPerimeter=0;entryX=0.336;entryY=0.047;entryDx=0;entryDy=0;entryPerimeter=0;" edge="1" parent="1" source="wPcUezbcUqwBAAdGlCMR-48" target="wPcUezbcUqwBAAdGlCMR-49">
          <mxGeometry width="50" height="50" relative="1" as="geometry">
            <mxPoint x="255" y="260" as="sourcePoint" />
            <mxPoint x="305" y="210" as="targetPoint" />
          </mxGeometry>
        </mxCell>
        <mxCell id="wPcUezbcUqwBAAdGlCMR-55" value="串口" style="text;html=1;align=center;verticalAlign=middle;whiteSpace=wrap;rounded=0;" vertex="1" parent="1">
          <mxGeometry x="185" y="180" width="60" height="30" as="geometry" />
        </mxCell>
        <mxCell id="wPcUezbcUqwBAAdGlCMR-56" value="串口或按键" style="text;html=1;align=center;verticalAlign=middle;whiteSpace=wrap;rounded=0;" vertex="1" parent="1">
          <mxGeometry x="105" y="170" width="80" height="10" as="geometry" />
        </mxCell>
        <mxCell id="wPcUezbcUqwBAAdGlCMR-57" value="串口或按键" style="text;html=1;align=center;verticalAlign=middle;whiteSpace=wrap;rounded=0;" vertex="1" parent="1">
          <mxGeometry x="255" y="300" width="80" height="10" as="geometry" />
        </mxCell>
        <mxCell id="wPcUezbcUqwBAAdGlCMR-58" value="按键" style="text;html=1;align=center;verticalAlign=middle;whiteSpace=wrap;rounded=0;" vertex="1" parent="1">
          <mxGeometry x="365" y="160" width="80" height="10" as="geometry" />
        </mxCell>
      </root>
    </mxGraphModel>
  </diagram>
</mxfile>
